HIERARCHY
ROOT hip
{
	OFFSET 0.000000 0.000000 0.000000 
	CHANNELS 6 Xposition Yposition Zposition Xrotation Zrotation Yrotation
	JOINT abdomen
	{
		OFFSET 0.000000 3.402643 0.000000 
		CHANNELS 3 Xrotation Zrotation Yrotation
		JOINT chest
		{
			OFFSET 0.000000 8.438565 -0.680529 
			CHANNELS 3 Xrotation Zrotation Yrotation
			JOINT neck
			{
				OFFSET 0.000000 10.207942 -0.272212 
				CHANNELS 3 Xrotation Zrotation Yrotation
				JOINT head
				{
					OFFSET 0.000000 3.130431 0.000000 
					CHANNELS 3 Xrotation Zrotation Yrotation
					End Site
					{
						OFFSET 0.000000 3.130435 0.000000 
					}
				}
			}
			JOINT lCollar
			{
				OFFSET 3.470700 6.669187 -0.816635 
				CHANNELS 3 Yrotation Zrotation Xrotation
				JOINT lShldr
				{
					OFFSET 3.198488 0.000000 0.000000 
					CHANNELS 3 Zrotation Yrotation Xrotation
					JOINT lForeArm
					{
						OFFSET 10.139888 0.000000 0.000000 
						CHANNELS 3 Yrotation Zrotation Xrotation
						JOINT lHand
						{
							OFFSET 8.370511 0.000000 0.000000 
							CHANNELS 3 Zrotation Yrotation Xrotation
							End Site
							{
								OFFSET 4.083176 0.000000 0.000000 
							}
						}
					}
				}
			}
			JOINT rCollar
			{
				OFFSET -3.470700 6.669187 -0.816635 
				CHANNELS 3 Yrotation Zrotation Xrotation
				JOINT rShldr
				{
					OFFSET -3.198488 0.000000 0.000000 
					CHANNELS 3 Zrotation Yrotation Xrotation
					JOINT rForeArm
					{
						OFFSET -10.139888 0.000000 0.000000 
						CHANNELS 3 Yrotation Zrotation Xrotation
						JOINT rHand
						{
							OFFSET -8.370511 0.000000 0.000000 
							CHANNELS 3 Zrotation Yrotation Xrotation
							End Site
							{
								OFFSET -4.083176 0.000000 0.000000 
							}
						}
					}
				}
			}
		}
	}
	JOINT lThigh
	{
		OFFSET 5.308129 -1.633274 1.361059 
		CHANNELS 3 Xrotation Zrotation Yrotation
		JOINT lShin
		{
			OFFSET -2.041588 -20.007561 0.000000 
			CHANNELS 3 Xrotation Zrotation Yrotation
			JOINT lFoot
			{
				OFFSET 0.000000 -19.190928 -1.224953 
				CHANNELS 3 Xrotation Yrotation Zrotation
				End Site
				{
					OFFSET 0.000000 -2.449906 4.627600 
				}
			}
		}
	}
	JOINT rThigh
	{
		OFFSET -5.308129 -1.633274 1.361059 
		CHANNELS 3 Xrotation Zrotation Yrotation
		JOINT rShin
		{
			OFFSET 2.041588 -20.007561 0.000000 
			CHANNELS 3 Xrotation Zrotation Yrotation
			JOINT rFoot
			{
				OFFSET 0.000000 -19.190928 -1.224953 
				CHANNELS 3 Xrotation Yrotation Zrotation
				End Site
				{
					OFFSET 0.000000 -2.449906 4.627600 
				}
			}
		}
	}
}
MOTION
Frames: 6
Frame Time: 0.016667
-0.179234 40.751266 -0.219984 -1.152390 0.517473 -2.930330 -17.208300 -2.005230 2.427190 29.554701 -3.144490 0.478574 16.051001 0.421512 -1.889860 10.226400 3.715210 -0.726829 2.000000 -2.000000 0.000000 100.147003 -174.957001 6.358840 50.977001 -0.300931 0.106269 0.044641 0.001613 -136.345993 -2.000000 2.000000 0.000000 -91.719002 177.160004 4.723590 -51.543400 0.299876 0.107065 -0.055487 -0.008898 -130.242004 -11.497540 4.033981 0.710976 34.894257 3.036590 2.440259 -25.553892 15.437900 8.199189 -13.984636 -2.153079 5.699278 43.198860 -2.512012 -2.967344 -34.005566 -11.023361 -8.082049 
-0.180100 40.566444 -0.247198 -1.171920 0.527233 -2.950240 -17.179001 -1.990410 2.410950 29.554300 -3.096270 0.476439 16.252399 0.317558 -1.856990 10.343400 3.665600 -0.695312 2.000000 -2.000000 0.000000 100.087997 -174.897995 6.280840 51.064899 -0.300767 0.106401 0.044648 0.002242 -136.121002 -2.000000 2.000000 0.000000 -91.728798 177.082001 4.733540 -51.504398 0.299949 0.107007 -0.055493 -0.008952 -130.223007 -12.249048 4.080321 0.570234 36.464508 2.941208 2.535655 -26.450321 15.219887 8.435642 -13.513642 -2.127083 6.036328 42.262924 -2.579698 -2.912815 -33.817665 -10.351288 -7.554714 
-0.180096 40.386009 -0.274664 -1.171930 0.536997 -2.989500 -17.149500 -1.987390 2.418760 29.573700 -3.076810 0.478443 16.435101 0.204120 -1.838680 10.450600 3.616090 -0.664612 2.000000 -2.000000 0.000000 100.058998 -174.809998 6.212680 51.094200 -0.300713 0.106445 0.044659 0.002898 -135.886993 -2.000000 2.000000 0.000000 -91.719002 177.033005 4.704360 -51.504398 0.299949 0.107007 -0.055515 -0.009142 -130.154007 -12.740200 4.119634 0.459328 37.433208 2.868459 2.606050 -27.006176 15.114565 8.570019 -13.235519 -2.115705 6.344591 41.700119 -2.633588 -2.874691 -33.898140 -9.255286 -6.846667 
-0.178344 40.382671 -0.279474 -1.162160 0.517472 -3.037840 -17.139601 -1.984100 2.427470 29.573700 -3.086460 0.486679 16.549500 0.120242 -1.817090 10.518700 3.576650 -0.635421 2.000000 -2.000000 0.000000 100.058998 -174.751007 6.154210 51.094200 -0.300713 0.106445 0.044665 0.003226 -135.768997 -2.000000 2.000000 0.000000 -91.699501 177.013000 4.694640 -51.514198 0.299931 0.107022 -0.055528 -0.009251 -130.115005 -12.860818 4.135021 0.433846 37.728432 2.856639 2.617073 -27.169514 15.137371 8.639838 -13.119610 -2.124659 6.273419 41.475334 -2.623013 -2.865139 -33.787933 -9.394993 -6.916065 
-0.176887 40.369415 -0.285724 -1.162150 0.468654 -3.066150 -17.139601 -1.978190 2.415450 29.554199 -3.086620 0.487731 16.557501 0.103329 -1.792850 10.518600 3.566950 -0.626760 2.000000 -2.000000 0.000000 100.058998 -174.740997 6.095640 51.104000 -0.300695 0.106460 0.044664 0.003171 -135.789001 -2.000000 2.000000 0.000000 -91.699501 177.013000 4.723940 -51.543400 0.299876 0.107065 -0.055519 -0.009169 -130.143997 -12.969448 4.182295 0.424945 37.847378 2.839481 2.619311 -27.162214 15.126275 8.641607 -13.149717 -2.088235 6.103649 41.427055 -2.618457 -2.874056 -33.673275 -9.721591 -7.107706 
-0.176820 40.356281 -0.289730 -1.152380 0.439364 -3.094770 -17.139299 -1.950200 2.406820 29.553900 -3.048040 0.484070 16.448500 0.088635 -1.776110 10.469700 3.567390 -0.620032 2.000000 -2.000000 0.000000 100.049004 -174.720993 6.046860 51.094200 -0.300713 0.106445 0.044661 0.003007 -135.848007 -2.000000 2.000000 0.000000 -91.748299 177.022995 4.782510 -51.572701 0.299821 0.107109 -0.055499 -0.009006 -130.203003 -12.970322 4.240370 0.431852 37.915970 2.838277 2.617877 -27.211226 15.116200 8.655216 -13.180774 -2.056552 5.953618 41.366520 -2.639449 -2.862802 -33.370770 -10.091606 -7.269565 
